<?xml version="1.0" encoding="utf-8"?>
<svg version="1.1" viewBox="149.423 28.984 588.685 671.016" fill="none" stroke="none" stroke-linecap="square" stroke-miterlimit="10" xmlns="http://www.w3.org/2000/svg" xmlns:bx="https://boxy-svg.com">
  <defs>
    <radialGradient gradientUnits="userSpaceOnUse" cx="321.098" cy="640.922" r="243.258" id="gradient-0">
      <stop offset="0" style="stop-color: rgb(24, 21, 47);"/>
      <stop offset="1" style="stop-color: rgb(65, 106, 199);"/>
    </radialGradient>
    <filter id="spot-light-filter-0" primitiveUnits="objectBoundingBox" x="-500%" y="-500%" width="1000%" height="1000%" bx:preset="spot-light 1 0.5 0.5 1 0.5 0.5 0 66 #ffffff 102 0.41 0.01 0">
      <feSpecularLighting result="specular-lighting" lighting-color="#ffffff" specularConstant="0.41" specularExponent="102">
        <feSpotLight x="0.5" y="0.5" z="1" limitingConeAngle="66" pointsAtX="0.5" pointsAtY="0.5" pointsAtZ="0"/>
      </feSpecularLighting>
      <feDiffuseLighting result="diffuse-lighting" lighting-color="#ffffff" diffuseConstant="0.01">
        <feSpotLight x="0.5" y="0.5" z="1" limitingConeAngle="66" pointsAtX="0.5" pointsAtY="0.5" pointsAtZ="0"/>
      </feDiffuseLighting>
      <feMerge result="lighting">
        <feMergeNode in="diffuse-lighting"/>
        <feMergeNode in="specular-lighting"/>
      </feMerge>
      <feComposite in="SourceGraphic" in2="lighting" operator="arithmetic" k1="1" k2="0" k3="0" k4="0"/>
    </filter>
  </defs>
  <clipPath id="p.0">
    <path d="m0 0l960.0 0l0 720.0l-960.0 0l0 -720.0z" clip-rule="nonzero"/>
  </clipPath>
  <circle style="fill-rule: nonzero; fill: rgb(0, 0, 0);" cx="443.633" cy="321.579" r="281.162"/>
  <g clip-path="url(#p.0)" transform="matrix(1, 0, 0, 1, 0.284917, 8.657104)">
    <path fill="#000000" fill-opacity="0.0" d="M 0 720 L 960 720 L 0 720 Z" fill-rule="evenodd" style="stroke-width: 0px;"/>
    <path fill="#ff9900" d="M 443.849 220.801 L 526.148 220.801 L 443.849 572.58 L 443.849 220.801 Z" fill-rule="evenodd"/>
    <path fill="#ff9900" d="M 443.409 223.538 C 443.409 215.882 449.616 209.675 457.273 209.675 L 512.727 209.675 C 516.404 209.675 519.93 211.135 522.53 213.735 C 525.13 216.335 526.591 219.861 526.591 223.538 L 526.591 368.741 C 526.591 376.397 444.833 582.845 444.833 575.188 L 443.409 223.538 Z" fill-rule="evenodd"/>
    <path fill="#ff9900" d="M 348.948 223.538 C 348.948 215.882 355.155 209.675 362.811 209.675 L 418.265 209.675 C 421.942 209.675 425.468 211.135 428.068 213.735 C 430.668 216.335 432.129 219.861 432.129 223.538 L 432.129 291.118 C 432.129 298.775 425.922 304.982 418.265 304.982 L 362.811 304.982 C 355.155 304.982 348.948 298.775 348.948 291.118 L 348.948 223.538 Z" fill-rule="evenodd" style="stroke-linecap: round; stroke-width: 0px; stroke-miterlimit: 1;"/>
    <path fill="#ff9900" d="m254.04462 223.53833l0 0c0 -7.6567535 6.2070312 -13.863785 13.8638 -13.863785l55.45352 0l0 0c3.6769104 0 7.2032166 1.4606476 9.803162 4.060608c2.5999756 2.5999603 4.060608 6.1262817 4.060608 9.803177l0 67.5795c0 7.656769 -6.2070312 13.8638 -13.86377 13.8638l-55.45352 0c-7.656769 0 -13.8638 -6.2070312 -13.8638 -13.8638z" fill-rule="evenodd" style="stroke-width: 0px;"/>
    <path fill="#ff9900" d="M 537.871 223.538 C 537.871 215.882 544.078 209.675 551.735 209.675 L 585.832 208.251 C 589.509 208.251 551.735 304.982 551.735 304.982 C 544.078 304.982 537.871 298.775 537.871 291.118 L 537.871 223.538 Z" fill-rule="evenodd"/>
    <path fill="#666666" d="M 537.871 131.31 C 537.871 123.868 543.904 117.835 551.347 117.835 L 607.577 117.835 C 611.151 117.835 614.579 119.254 617.106 121.781 C 619.633 124.309 592.576 196.6 592.576 196.6 C 592.576 204.042 551.347 198.685 551.347 198.685 C 543.904 198.685 537.871 192.652 537.871 185.21 L 537.871 131.31 Z" fill-rule="evenodd"/>
    <path fill="#000000" fill-opacity="0.0" d="m254.04462 124.66929l283.81104 0l0 80.78741l-283.81104 0z" fill-rule="evenodd"/>
    <path d="m277.68524 182.3093q-2.53125 0 -4.5625 -1.28125q-2.03125 -1.296875 -3.203125 -3.53125q-1.15625 -2.234375 -1.15625 -5.015625l0 -24.15625q0 -1.125 0.703125 -1.828125q0.71875 -0.703125 1.828125 -0.703125q1.125 0 1.828125 0.703125q0.71875 0.703125 0.71875 1.828125l0 24.15625q0 2.03125 1.109375 3.40625q1.109375 1.359375 2.734375 1.359375l1.71875 0q0.921875 0 1.546875 0.71875q0.640625 0.703125 0.640625 1.8125q0 1.109375 -0.84375 1.828125q-0.828125 0.703125 -2.15625 0.703125l-0.90625 0zm-11.25 -22.34375q-1.0625 0 -1.71875 -0.609375q-0.65625 -0.609375 -0.65625 -1.515625q0 -1.015625 0.65625 -1.625q0.65625 -0.609375 1.71875 -0.609375l11.703125 0q1.0625 0 1.71875 0.609375q0.65625 0.609375 0.65625 1.625q0 0.90625 -0.65625 1.515625q-0.65625 0.609375 -1.71875 0.609375l-11.703125 0zm34.5007 22.546875q-4.203125 0 -7.46875 -1.796875q-3.265625 -1.796875 -5.125 -4.953125q-1.84375 -3.171875 -1.84375 -7.28125q0 -4.15625 1.75 -7.3125q1.75 -3.171875 4.828125 -4.96875q3.09375 -1.796875 7.09375 -1.796875q3.953125 0 6.78125 1.75q2.84375 1.734375 4.34375 4.8125q1.5 3.0625 1.5 7.0625q0 0.953125 -0.671875 1.59375q-0.65625 0.625 -1.671875 0.625l-20.40625 0l0 -4.046875l20.265625 0l-2.078125 1.421875q-0.046875 -2.53125 -1.015625 -4.53125q-0.96875 -2.0 -2.75 -3.171875q-1.765625 -1.171875 -4.296875 -1.171875q-2.875 0 -4.9375 1.28125q-2.046875 1.265625 -3.109375 3.46875q-1.0625 2.203125 -1.0625 4.984375q0 2.78125 1.265625 4.96875q1.265625 2.171875 3.484375 3.4375q2.234375 1.265625 5.125 1.265625q1.5625 0 3.203125 -0.578125q1.65625 -0.578125 2.671875 -1.34375q0.765625 -0.5625 1.640625 -0.578125q0.890625 -0.03125 1.546875 0.53125q0.859375 0.75 0.90625 1.671875q0.0625 0.90625 -0.796875 1.5625q-1.71875 1.375 -4.28125 2.234375q-2.5625 0.859375 -4.890625 0.859375zm29.99112 0q-4.0625 0 -7.234375 -1.84375q-3.15625 -1.859375 -4.953125 -5.015625q-1.796875 -3.171875 -1.796875 -7.171875q0 -4.109375 1.765625 -7.296875q1.78125 -3.1875 4.859375 -4.984375q3.09375 -1.796875 7.109375 -1.796875q2.984375 0 5.46875 1.140625q2.484375 1.140625 4.453125 3.40625q0.703125 0.8125 0.5 1.6875q-0.203125 0.859375 -1.109375 1.515625q-0.703125 0.5 -1.5625 0.328125q-0.859375 -0.1875 -1.578125 -0.890625q-2.484375 -2.640625 -6.171875 -2.640625q-2.59375 0 -4.578125 1.203125q-1.96875 1.1875 -3.078125 3.3125q-1.109375 2.125 -1.109375 5.015625q0 2.734375 1.140625 4.859375q1.140625 2.125 3.15625 3.375q2.03125 1.234375 4.71875 1.234375q1.765625 0 3.109375 -0.421875q1.34375 -0.4375 2.453125 -1.34375q0.8125 -0.65625 1.671875 -0.734375q0.875 -0.078125 1.53125 0.484375q0.859375 0.703125 0.953125 1.59375q0.109375 0.875 -0.609375 1.59375q-3.640625 3.390625 -9.109375 3.390625zm41.288177 -0.15625q-1.125 0 -1.859375 -0.734375q-0.734375 -0.734375 -0.734375 -1.84375l0 -12.46875q0 -2.875 -1.0625 -4.703125q-1.0625 -1.828125 -2.859375 -2.703125q-1.796875 -0.890625 -4.125 -0.890625q-2.125 0 -3.859375 0.859375q-1.71875 0.859375 -2.734375 2.3125q-1.015625 1.4375 -1.015625 3.3125l-3.1875 0q0 -3.203125 1.546875 -5.703125q1.546875 -2.515625 4.234375 -3.984375q2.6875 -1.46875 6.03125 -1.46875q3.484375 0 6.25 1.5q2.765625 1.5 4.359375 4.390625q1.59375 2.875 1.59375 7.078125l0 12.46875q0 1.109375 -0.734375 1.84375q-0.734375 0.734375 -1.84375 0.734375zm-20.828125 0q-1.109375 0 -1.84375 -0.734375q-0.734375 -0.734375 -0.734375 -1.84375l0 -22.59375q0 -1.171875 0.734375 -1.875q0.734375 -0.703125 1.84375 -0.703125q1.171875 0 1.875 0.703125q0.703125 0.703125 0.703125 1.875l0 22.59375q0 1.109375 -0.703125 1.84375q-0.703125 0.734375 -1.875 0.734375zm0 -10.125q-1.109375 0 -1.84375 -0.734375q-0.734375 -0.734375 -0.734375 -1.859375l0 -24.3125q0 -1.15625 0.734375 -1.859375q0.734375 -0.71875 1.84375 -0.71875q1.171875 0 1.875 0.71875q0.703125 0.703125 0.703125 1.859375l0 24.3125q0 1.125 -0.703125 1.859375q-0.703125 0.734375 -1.875 0.734375zm50.817017 10.578125q-4.46875 0 -8.171875 -1.484375q-3.6875 -1.5 -6.34375 -4.203125q-2.65625 -2.71875 -4.140625 -6.4375q-1.46875 -3.71875 -1.46875 -8.1875q0 -4.453125 1.46875 -8.140625q1.484375 -3.703125 4.140625 -6.40625q2.65625 -2.71875 6.34375 -4.203125q3.703125 -1.5 8.171875 -1.5q4.453125 0 8.125 1.5q3.671875 1.484375 6.359375 4.203125q2.6875 2.703125 4.15625 6.40625q1.46875 3.6875 1.46875 8.140625q0 4.46875 -1.46875 8.1875q-1.46875 3.71875 -4.15625 6.4375q-2.6875 2.703125 -6.359375 4.203125q-3.671875 1.484375 -8.125 1.484375zm0 -4.75q3.28125 0 6.046875 -1.1875q2.765625 -1.203125 4.78125 -3.296875q2.03125 -2.109375 3.109375 -4.9375q1.09375 -2.84375 1.09375 -6.140625q0 -3.28125 -1.09375 -6.109375q-1.078125 -2.84375 -3.109375 -4.953125q-2.015625 -2.109375 -4.78125 -3.265625q-2.765625 -1.171875 -6.046875 -1.171875q-3.296875 0 -6.0625 1.171875q-2.765625 1.15625 -4.765625 3.265625q-2.0 2.109375 -3.109375 4.953125q-1.109375 2.828125 -1.109375 6.109375q0 3.296875 1.109375 6.140625q1.109375 2.828125 3.109375 4.9375q2.0 2.09375 4.765625 3.296875q2.765625 1.1875 6.0625 1.1875zm51.263855 4.296875q-1.125 0 -1.859375 -0.734375q-0.734375 -0.734375 -0.734375 -1.84375l0 -12.46875q0 -2.875 -1.0625 -4.703125q-1.0625 -1.828125 -2.859375 -2.703125q-1.796875 -0.890625 -4.125 -0.890625q-2.125 0 -3.859375 0.859375q-1.71875 0.859375 -2.734375 2.3125q-1.015625 1.4375 -1.015625 3.3125l-3.1875 0q0 -3.203125 1.546875 -5.703125q1.546875 -2.515625 4.234375 -3.984375q2.6875 -1.46875 6.03125 -1.46875q3.484375 0 6.25 1.5q2.765625 1.5 4.359375 4.390625q1.59375 2.875 1.59375 7.078125l0 12.46875q0 1.109375 -0.734375 1.84375q-0.734375 0.734375 -1.84375 0.734375zm-20.828125 0q-1.109375 0 -1.84375 -0.734375q-0.734375 -0.734375 -0.734375 -1.84375l0 -22.59375q0 -1.171875 0.734375 -1.875q0.734375 -0.703125 1.84375 -0.703125q1.171875 0 1.875 0.703125q0.703125 0.703125 0.703125 1.875l0 22.59375q0 1.109375 -0.703125 1.84375q-0.703125 0.734375 -1.875 0.734375zm55.375732 0q-1.125 0 -1.859375 -0.734375q-0.734375 -0.734375 -0.734375 -1.84375l0 -12.46875q0 -2.875 -1.0625 -4.703125q-1.0625 -1.828125 -2.859375 -2.703125q-1.796875 -0.890625 -4.125 -0.890625q-2.125 0 -3.859375 0.859375q-1.71875 0.859375 -2.734375 2.3125q-1.015625 1.4375 -1.015625 3.3125l-3.1875 0q0 -3.203125 1.546875 -5.703125q1.546875 -2.515625 4.234375 -3.984375q2.6875 -1.46875 6.03125 -1.46875q3.484375 0 6.25 1.5q2.765625 1.5 4.359375 4.390625q1.59375 2.875 1.59375 7.078125l0 12.46875q0 1.109375 -0.734375 1.84375q-0.734375 0.734375 -1.84375 0.734375zm-20.828125 0q-1.109375 0 -1.84375 -0.734375q-0.734375 -0.734375 -0.734375 -1.84375l0 -22.59375q0 -1.171875 0.734375 -1.875q0.734375 -0.703125 1.84375 -0.703125q1.171875 0 1.875 0.703125q0.703125 0.703125 0.703125 1.875l0 22.59375q0 1.109375 -0.703125 1.84375q-0.703125 0.734375 -1.875 0.734375zm44.985077 0.15625q-4.2030945 0 -7.4687195 -1.796875q-3.265625 -1.796875 -5.125 -4.953125q-1.84375 -3.171875 -1.84375 -7.28125q0 -4.15625 1.75 -7.3125q1.75 -3.171875 4.828125 -4.96875q3.09375 -1.796875 7.0937195 -1.796875q3.953125 0 6.78125 1.75q2.84375 1.734375 4.34375 4.8125q1.5 3.0625 1.5 7.0625q0 0.953125 -0.671875 1.59375q-0.65625 0.625 -1.671875 0.625l-20.40622 0l0 -4.046875l20.265594 0l-2.078125 1.421875q-0.046875 -2.53125 -1.015625 -4.53125q-0.96875 -2.0 -2.75 -3.171875q-1.765625 -1.171875 -4.296875 -1.171875q-2.8749695 0 -4.9374695 1.28125q-2.046875 1.265625 -3.109375 3.46875q-1.0625 2.203125 -1.0625 4.984375q0 2.78125 1.265625 4.96875q1.265625 2.171875 3.484375 3.4375q2.234375 1.265625 5.1249695 1.265625q1.5625 0 3.203125 -0.578125q1.65625 -0.578125 2.671875 -1.34375q0.765625 -0.5625 1.640625 -0.578125q0.890625 -0.03125 1.546875 0.53125q0.859375 0.75 0.90625 1.671875q0.0625 0.90625 -0.796875 1.5625q-1.71875 1.375 -4.28125 2.234375q-2.5625 0.859375 -4.890625 0.859375z" fill-rule="nonzero" style="stroke-miterlimit: 16; fill: rgb(217, 217, 217);"/>
    <path style="fill: rgb(216, 216, 216); stroke: rgb(0, 0, 0);" d="M 540.16 444.742"/>
    <path style="fill: rgb(216, 216, 216); stroke: rgb(0, 0, 0); stroke-linecap: round; stroke-width: 0px;" d="M 381.968 379.777"/>
    <path style="fill: rgb(216, 216, 216); stroke: rgb(0, 0, 0); stroke-linecap: round; stroke-width: 0px;" d="M 635.916 439.63"/>
    <text style="fill: url(#gradient-0); font-family: Arial, sans-serif; font-size: 73px; font-weight: 700; stroke-dasharray: 2px; stroke-miterlimit: 9; white-space: pre; filter: url(#spot-light-filter-0); mix-blend-mode: darken;" x="199.723" y="657.128">TECNOLOGIA</text>
  </g>
</svg>