<?xml version="1.0" standalone="no"?>
<!DOCTYPE svg PUBLIC "-//W3C//DTD SVG 20010904//EN"
 "http://www.w3.org/TR/2001/REC-SVG-20010904/DTD/svg10.dtd">
<svg version="1.0" xmlns="http://www.w3.org/2000/svg"
 width="960.000000pt" height="960.000000pt" viewBox="0 0 960.000000 960.000000"
 preserveAspectRatio="xMidYMid meet">
<metadata>
Created by potrace 1.14, written by Peter Selinger 2001-2017
</metadata>
<g transform="translate(0.000000,960.000000) scale(0.100000,-0.100000)"
fill="#000000" stroke="none">
<path d="M4260 8137 c-3 -3 -45 -7 -95 -11 -49 -3 -106 -8 -125 -11 -74 -12
-288 -56 -340 -70 -30 -9 -62 -18 -70 -20 -38 -9 -156 -48 -165 -53 -5 -4 -13
-7 -17 -8 -5 -1 -10 -3 -13 -4 -3 -1 -8 -3 -12 -5 -5 -1 -21 -8 -38 -15 -16
-7 -39 -15 -49 -17 -11 -2 -27 -10 -36 -18 -9 -8 -22 -15 -28 -15 -12 0 -161
-74 -257 -128 -96 -54 -293 -188 -330 -226 -9 -9 -24 -20 -33 -25 -29 -16
-113 -92 -232 -211 -126 -127 -162 -168 -224 -250 -22 -30 -44 -57 -47 -60 -8
-7 -134 -193 -142 -210 -4 -8 -21 -37 -38 -65 -16 -27 -39 -68 -50 -90 -11
-22 -24 -47 -29 -55 -15 -24 -74 -157 -110 -250 -18 -47 -36 -94 -41 -105 -7
-18 -21 -61 -24 -75 -7 -29 -28 -100 -35 -120 -5 -14 -12 -41 -15 -60 -3 -19
-8 -43 -11 -52 -3 -9 -7 -26 -9 -37 -3 -12 -7 -29 -9 -40 -2 -10 -7 -36 -10
-57 -4 -22 -9 -52 -11 -69 -39 -236 -39 -620 0 -862 3 -18 8 -49 11 -69 3 -20
8 -46 10 -58 3 -11 8 -34 10 -51 3 -16 12 -52 19 -80 8 -27 17 -61 20 -75 9
-31 45 -150 52 -170 3 -8 7 -19 9 -25 34 -113 172 -408 244 -520 11 -16 24
-40 30 -52 5 -13 14 -23 19 -23 5 0 11 -8 13 -17 5 -16 132 -200 147 -213 4
-3 26 -30 51 -60 25 -30 54 -64 65 -76 11 -11 36 -39 56 -60 86 -94 276 -261
384 -339 16 -11 34 -26 41 -32 7 -7 15 -13 18 -13 3 0 45 -26 93 -57 101 -66
195 -119 303 -169 41 -19 83 -39 93 -44 24 -14 236 -92 257 -95 3 0 10 -3 15
-6 11 -7 206 -59 245 -66 14 -2 32 -6 40 -8 8 -3 32 -7 54 -11 21 -3 48 -8 60
-10 29 -6 159 -22 233 -29 90 -8 302 -9 418 -1 108 7 362 44 435 63 14 3 30 7
35 8 6 2 30 8 55 15 25 7 50 13 55 15 6 1 17 5 25 8 8 3 33 11 55 17 22 6 47
14 55 17 17 7 34 12 54 16 8 2 21 9 30 16 9 7 16 11 16 8 0 -5 30 6 130 50
116 51 389 199 410 222 3 3 32 24 64 45 33 21 64 43 70 48 38 31 58 47 81 64
55 39 123 102 240 219 135 135 181 187 277 319 37 50 72 96 76 101 19 24 152
254 179 310 15 33 33 63 38 67 6 4 7 8 3 8 -3 0 7 27 23 60 16 33 29 63 29 66
0 3 7 20 15 37 46 99 138 426 160 572 20 134 25 178 19 186 -3 5 -2 9 3 9 16
0 23 411 9 530 -3 30 -8 80 -11 110 -8 83 -11 105 -16 115 -3 6 -6 26 -8 45
-4 50 -81 352 -93 368 -6 6 -8 12 -4 12 3 0 -4 24 -15 53 -12 28 -22 57 -24
62 -13 56 -162 377 -177 383 -4 2 -8 12 -8 22 0 10 -3 20 -8 22 -4 2 -27 37
-51 78 -24 41 -57 91 -73 111 -15 20 -28 40 -28 43 0 3 -7 14 -15 23 -8 10
-37 47 -65 83 -140 178 -297 338 -475 483 -56 45 -186 137 -194 137 -6 0 -11
3 -11 8 0 6 -28 24 -120 77 -10 6 -25 17 -34 24 -9 7 -16 10 -16 7 0 -4 -12 1
-27 12 -58 41 -332 162 -467 207 -77 25 -151 46 -181 52 -16 3 -34 8 -40 12
-5 4 -17 7 -25 6 -8 -1 -26 3 -39 7 -13 5 -40 11 -60 14 -20 3 -45 8 -56 11
-11 3 -33 7 -50 9 -28 2 -93 10 -160 20 -43 6 -450 16 -455 11z"/>
</g>
</svg>
